<?xml version="1.0" encoding="utf-8"?>
<!-- Generator: Adobe Illustrator 25.2.1, SVG Export Plug-In . SVG Version: 6.00 Build 0)  -->
<svg version="1.1" id="S_SDKBothEndsArrowTool_Lg_N_2x"
	 xmlns="http://www.w3.org/2000/svg" xmlns:xlink="http://www.w3.org/1999/xlink" x="0px" y="0px" width="44px" height="36px"
	 viewBox="0 0 44 36" style="enable-background:new 0 0 44 36;" xml:space="preserve">
<style type="text/css">
	.st0{opacity:0.75;}
</style>
<g>
	<g class="st0">
		<path d="M33,25.9c-4.4,0-7.9-3.6-7.9-7.9c0-4.4,3.6-7.9,7.9-7.9c4.4,0,7.9,3.6,7.9,7.9C41,22.4,37.4,25.9,33,25.9z M33,11.8
			c-3.4,0-6.2,2.8-6.2,6.2c0,3.4,2.8,6.2,6.2,6.2c3.4,0,6.2-2.8,6.2-6.2C39.3,14.6,36.5,11.8,33,11.8z"/>
	</g>
	<g class="st0">
		<path d="M27.5,35.5c-4.4,0-7.9-3.6-7.9-7.9c0-4.4,3.6-7.9,7.9-7.9c4.4,0,7.9,3.6,7.9,7.9C35.5,31.9,31.9,35.5,27.5,35.5z
			 M27.5,21.3c-3.4,0-6.2,2.8-6.2,6.2c0,3.4,2.8,6.2,6.2,6.2c3.4,0,6.2-2.8,6.2-6.2C33.8,24.1,31,21.3,27.5,21.3z"/>
	</g>
	<g class="st0">
		<path d="M16.5,35.5c-4.4,0-7.9-3.6-7.9-7.9c0-4.4,3.6-7.9,7.9-7.9s7.9,3.6,7.9,7.9C24.4,31.9,20.9,35.5,16.5,35.5z M16.5,21.3
			c-3.4,0-6.2,2.8-6.2,6.2c0,3.4,2.8,6.2,6.2,6.2s6.2-2.8,6.2-6.2C22.7,24.1,19.9,21.3,16.5,21.3z"/>
	</g>
	<g class="st0">
		<path d="M11,25.9C6.6,25.9,3,22.4,3,18c0-4.4,3.6-7.9,7.9-7.9s7.9,3.6,7.9,7.9C18.9,22.4,15.4,25.9,11,25.9z M11,11.8
			c-3.4,0-6.2,2.8-6.2,6.2c0,3.4,2.8,6.2,6.2,6.2s6.2-2.8,6.2-6.2C17.2,14.6,14.4,11.8,11,11.8z"/>
	</g>
	<g class="st0">
		<path d="M16.5,16.4c-4.4,0-7.9-3.6-7.9-7.9s3.6-7.9,7.9-7.9s7.9,3.6,7.9,7.9S20.9,16.4,16.5,16.4z M16.5,2.2
			c-3.4,0-6.2,2.8-6.2,6.2s2.8,6.2,6.2,6.2s6.2-2.8,6.2-6.2S19.9,2.2,16.5,2.2z"/>
	</g>
	<g class="st0">
		<path d="M27.5,16.4c-4.4,0-7.9-3.6-7.9-7.9s3.6-7.9,7.9-7.9c4.4,0,7.9,3.6,7.9,7.9S31.9,16.4,27.5,16.4z M27.5,2.2
			c-3.4,0-6.2,2.8-6.2,6.2s2.8,6.2,6.2,6.2c3.4,0,6.2-2.8,6.2-6.2S31,2.2,27.5,2.2z"/>
	</g>
</g>
</svg>
